<svg width="220.6" height="161.402" viewBox="0 0 220.6 161.402" xmlns="http://www.w3.org/2000/svg">
    <g>
        <path
            d="M 47.6 4.401 L 47.6 0.401 A 13.745 13.745 0 0 0 48.156 0.389 Q 49.075 0.351 50.5 0.201 A 37.241 37.241 0 0 1 54.4 0.001 A 41.666 41.666 0 0 1 67.896 2.142 A 38.042 38.042 0 0 1 74.3 5.001 Q 80.665 8.577 85.24 17.472 A 62.759 62.759 0 0 1 88.6 25.401 L 115.4 102.601 L 136.8 39.201 L 132 25.401 A 84.153 84.153 0 0 0 129.84 19.754 Q 126.805 12.659 123.5 9.501 Q 119 5.201 110 4.401 L 110 0.401 A 13.745 13.745 0 0 0 110.556 0.389 Q 111.475 0.351 112.9 0.201 Q 114.8 0.001 116.8 0.001 A 41.666 41.666 0 0 1 130.296 2.142 A 38.042 38.042 0 0 1 136.7 5.001 Q 143.065 8.577 147.64 17.472 A 62.759 62.759 0 0 1 151 25.401 L 177.8 102.601 L 212 2.001 L 220.6 2.001 L 174.8 136.001 L 170.8 136.001 L 141.2 51.801 L 112.4 136.001 L 108.4 136.001 L 69.6 25.401 A 84.153 84.153 0 0 0 67.44 19.754 Q 64.405 12.659 61.1 9.501 Q 56.6 5.201 47.6 4.401 Z M 19 118.401 L 19 2.001 L 37 2.001 L 37 118.401 A 121.432 121.432 0 0 1 36.678 127.536 Q 36.329 132.148 35.602 136.04 A 48.256 48.256 0 0 1 33.7 143.301 A 26.588 26.588 0 0 1 29.4 151.161 A 23.301 23.301 0 0 1 22.4 157.001 Q 14.4 161.401 0 161.401 L 0 157.401 A 14.014 14.014 0 0 0 11.551 151.783 A 22.769 22.769 0 0 0 14.3 147.201 A 42.354 42.354 0 0 0 16.976 139.196 Q 19 130.607 19 118.401 Z"
            vector-effect="non-scaling-stroke" />
    </g>
</svg>