<svg width="196.2" height="135.675" viewBox="0 0 196.2 135.675" xmlns="http://www.w3.org/2000/svg"><g id="svgGroup" stroke-linecap="round" fill-rule="nonzero" font-size="9pt" stroke="#000" stroke-width="0.25mm" fill="#000" style="stroke:#000;stroke-width:0.25mm;fill:#000"><path d="M 2.625 135.675 L 0 128.85 Q 3.075 127.95 6.6 125.4 Q 10.125 122.85 13.35 119.475 Q 16.575 116.1 18.863 112.5 Q 21.15 108.9 21.75 105.75 Q 23.7 96.975 25.088 88.313 Q 26.475 79.65 27.638 70.425 Q 28.8 61.2 29.925 50.7 Q 31.05 40.2 32.475 27.713 Q 33.9 15.225 35.85 0 L 52.125 0 L 43.5 70.95 Q 41.625 86.25 40.088 95.1 Q 38.55 103.95 37.725 106.5 Q 34.95 115.8 30.113 121.8 Q 25.275 127.8 18.413 131.138 Q 11.55 134.475 2.625 135.675 Z" id="0" vector-effect="non-scaling-stroke"/><path d="M 98.85 112.65 L 81.9 112.65 L 65.475 0 L 81.825 0 L 91.2 78.75 L 93.3 94.65 L 97.875 78.825 L 121.95 17.325 L 120.15 0 L 135.9 0 L 143.625 78.75 L 144.825 94.65 L 150.075 78.825 L 179.55 0 L 196.2 0 L 150.525 112.65 L 133.2 112.65 L 126.6 53.4 L 125.625 40.8 L 121.5 53.4 L 98.85 112.65 Z" id="1" vector-effect="non-scaling-stroke"/></g></svg>